<svg width="64" height="72" viewBox="0 0 64 72" fill="none" xmlns="http://www.w3.org/2000/svg">
<g clip-path="url(#clip0_122_1014)">
<path d="M2.16531 56.2018C2.79572 56.2018 3.31649 56.3945 3.72762 56.6972V57.9083H3.70021C3.17944 57.4954 2.68608 57.2477 2.1379 57.2477C1.64454 57.2477 1.34304 57.5229 1.34304 57.9358C1.34304 58.3761 1.61713 58.6239 2.41199 59.0917C3.42612 59.6972 3.9743 60.2477 3.9743 61.1835C3.9743 62.3119 3.12462 63.0275 1.97345 63.0275C1.28822 63.0275 0.712632 62.7798 0.274088 62.4495L0.109634 61.1009H0.137043C0.740041 61.6789 1.45268 62.0367 2.00085 62.0367C2.52163 62.0367 2.90535 61.7339 2.90535 61.2385C2.90535 60.7706 2.57644 60.4954 1.80899 60.0275C0.877086 59.4495 0.274088 58.9541 0.274088 57.9633C0.274088 56.9174 1.01413 56.2018 2.16531 56.2018Z" fill="white"/>
<path d="M8.44198 57.3303V62.9174H7.31821V57.3303H5.42699V56.3119H10.3606V57.3303H8.44198Z" fill="white"/>
<path d="M16.6921 56.2844H17.8707L20.1456 62.9174H18.9396L18.4462 61.3486H16.0343L15.5135 62.9174H14.3623L16.6921 56.2844ZM18.1447 60.3853L17.2677 57.6055L16.3358 60.3853H18.1447Z" fill="white"/>
<path d="M21.8176 56.3119H22.8865L25.6548 60.4679V56.3119H26.7238V62.945H26.0385L22.8591 58.2385V62.9174H21.7901V56.3119H21.8176Z" fill="white"/>
<path d="M29.0809 56.3119H30.7529C32.836 56.3119 34.0146 57.5505 34.0146 59.5872C34.0146 61.5963 32.7538 62.9174 30.7529 62.9174H29.0809V56.3119ZM30.2047 57.3303V61.8991H30.8077C32.0685 61.8991 32.8634 61.0734 32.8634 59.6147C32.8634 58.1284 32.0959 57.3303 30.7803 57.3303H30.2047Z" fill="white"/>
<path d="M37.6051 60.3578H37.1666V62.9174H36.0428V56.3119H37.797C39.0852 56.3119 39.9623 56.9725 39.9623 58.2936C39.9623 59.2018 39.4689 59.8624 38.7289 60.1651L40.5927 62.945H39.2771L37.6051 60.3578ZM37.1666 57.2752V59.422H37.7148C38.3726 59.422 38.8111 59.0092 38.8111 58.3211C38.8111 57.633 38.4 57.2752 37.7422 57.2752H37.1666Z" fill="white"/>
<path d="M42.1824 56.3119H45.4989L45.7182 57.3303H43.3062V59.0917H45.3619V60.055H43.3062V61.9266H45.7456L45.5263 62.945H42.1824V56.3119Z" fill="white"/>
<path d="M53.8861 62.9449H52.8171L51.5015 58.8716L50.1585 62.9449H49.0895L47.3627 56.3119H48.5687L49.7199 61.2661L51.4193 56.2569H51.6934L53.3379 61.2661L54.5439 56.3119H55.6951L53.8861 62.9449Z" fill="white"/>
<path d="M58.1345 56.3119C58.3263 56.6697 58.4086 56.945 58.4086 57.2752C58.4086 57.8807 57.9152 58.3761 57.3944 58.8991L57.0655 58.7064C57.367 58.211 57.5315 57.8257 57.5315 57.4404C57.5315 57.1101 57.4492 56.8899 57.1203 56.3119H58.1345Z" fill="white"/>
<path d="M61.9991 56.2018C62.6295 56.2018 63.1503 56.3945 63.5614 56.6972V57.9083H63.534C63.0133 57.4954 62.5199 57.2477 61.9717 57.2477C61.4784 57.2477 61.1769 57.5229 61.1769 57.9358C61.1769 58.3761 61.4509 58.6239 62.2458 59.0917C63.2599 59.6972 63.8081 60.2477 63.8081 61.1835C63.8081 62.3119 62.9584 63.0275 61.8073 63.0275C61.122 63.0275 60.5465 62.7798 60.1079 62.4495L59.916 61.1009H59.9435C60.5465 61.6789 61.2591 62.0367 61.8073 62.0367C62.328 62.0367 62.7118 61.7339 62.7118 61.2385C62.7118 60.7706 62.3829 60.4954 61.6154 60.0275C60.6835 59.4495 60.0805 58.9541 60.0805 57.9633C60.1079 56.9174 60.8479 56.2018 61.9991 56.2018Z" fill="white"/>
<path d="M0 70.0734C0 68.8899 0.712634 68.0917 1.61713 68.0917C2.05567 68.0917 2.41199 68.2569 2.63126 68.4771V69.2477C2.38458 68.9725 2.05567 68.7248 1.67195 68.7248C1.12377 68.7248 0.712634 69.3027 0.712634 70.0734C0.712634 70.9541 1.15118 71.4495 1.67195 71.4495C2.05567 71.4495 2.38458 71.2293 2.68608 70.9541L2.60385 71.6972C2.35717 71.9174 2.00086 72.0826 1.56231 72.0826C0.685225 72.055 0 71.3119 0 70.0734Z" fill="white"/>
<path d="M5.37216 68.1193H6.05739L7.37302 72H6.66039L6.35889 71.0917H4.96103L4.65953 72H3.9743L5.37216 68.1193ZM6.22184 70.5138L5.70107 68.8899L5.15289 70.5138H6.22184Z" fill="white"/>
<path d="M10.1413 68.7523V72H9.48351V68.7523H8.38715V68.1468H11.2651V68.7523H10.1413Z" fill="white"/>
<path d="M14.9105 70.3486H13.3756V72H12.7178V68.1468H13.3756V69.7431H14.9105V68.1468H15.5683V72H14.9105V70.3486Z" fill="white"/>
<path d="M17.4047 68.1468H19.3507L19.4878 68.7248H18.0625V69.7431H19.2685V70.3211H18.0625V71.3945H19.4878L19.3507 71.9725H17.4047V68.1468Z" fill="white"/>
<path d="M21.242 68.1468H22.2013C23.4073 68.1468 24.0925 68.8624 24.0925 70.0734C24.0925 71.2569 23.3525 72 22.1739 72H21.2146V68.1468H21.242ZM21.8998 68.7523V71.422H22.2561C22.9962 71.422 23.4621 70.9266 23.4621 70.1009C23.4621 69.2202 23.0236 68.7798 22.2561 68.7798H21.8998V68.7523Z" fill="white"/>
<path d="M26.806 70.5138H26.5319V72H25.8741V68.1468H26.8882C27.6283 68.1468 28.149 68.5321 28.149 69.3028C28.149 69.8257 27.8475 70.211 27.4364 70.3761L28.5328 72H27.7653L26.806 70.5138ZM26.5319 68.7248V69.9908H26.8608C27.2445 69.9908 27.5186 69.7431 27.5186 69.3303C27.5186 68.945 27.2719 68.7248 26.8882 68.7248H26.5319Z" fill="white"/>
<path d="M31.0818 68.1193H31.767L33.0827 72H32.37L32.0685 71.0917H30.6981L30.3966 72H29.7113L31.0818 68.1193ZM31.9315 70.5138L31.4107 68.8899L30.8625 70.5138H31.9315Z" fill="white"/>
<path d="M34.6724 68.1468H35.3302V71.3945H36.591V72H34.645L34.6724 68.1468Z" fill="white"/>
<path d="M41.1135 68.0917C41.4698 68.0917 41.7713 68.2018 42.018 68.367V69.055C41.7165 68.8073 41.415 68.6697 41.1135 68.6697C40.8394 68.6697 40.6475 68.8349 40.6475 69.0826C40.6475 69.3303 40.812 69.4679 41.278 69.7706C41.8535 70.1284 42.1824 70.4587 42.1824 71.0092C42.1824 71.6697 41.6891 72.0826 41.0039 72.0826C40.5927 72.0826 40.2638 71.945 40.0171 71.7523L39.9075 70.9541C40.2638 71.2844 40.675 71.5046 41.0039 71.5046C41.3054 71.5046 41.5246 71.3394 41.5246 71.0367C41.5246 70.7615 41.3328 70.5963 40.8942 70.3486C40.346 70.0183 39.9897 69.7156 39.9897 69.1376C39.9897 68.5046 40.4283 68.0917 41.1135 68.0917Z" fill="white"/>
<path d="M43.7996 70.0734C43.7996 68.8899 44.5122 68.0917 45.4167 68.0917C45.8552 68.0917 46.2115 68.2569 46.4308 68.4771V69.2477C46.1841 68.9725 45.8552 68.7248 45.4715 68.7248C44.9233 68.7248 44.5122 69.3027 44.5122 70.0734C44.5122 70.9541 44.9507 71.4495 45.4715 71.4495C45.8552 71.4495 46.1841 71.2293 46.4856 70.9541L46.4034 71.6972C46.1567 71.9174 45.8004 72.0826 45.3619 72.0826C44.4848 72.055 43.7996 71.3119 43.7996 70.0734Z" fill="white"/>
<path d="M50.2681 70.3486H48.7332V72H48.0754V68.1468H48.7332V69.7431H50.2681V68.1468H50.9259V72H50.2681V70.3486Z" fill="white"/>
<path d="M54.215 68.0642C55.1743 68.0642 55.8321 68.8899 55.8321 70.0734C55.8321 71.2569 55.1469 72.0826 54.1876 72.0826C53.2282 72.0826 52.5704 71.2569 52.5704 70.0734C52.5704 68.8899 53.2283 68.0642 54.215 68.0642ZM54.1876 71.4771C54.7357 71.4771 55.1469 70.9266 55.1469 70.0734C55.1469 69.2477 54.7357 68.6697 54.1876 68.6697C53.6394 68.6697 53.2282 69.2202 53.2282 70.0734C53.2557 70.8991 53.6394 71.4771 54.1876 71.4771Z" fill="white"/>
<path d="M58.8745 68.0642C59.8338 68.0642 60.4916 68.8899 60.4916 70.0734C60.4916 71.2569 59.8064 72.0826 58.8471 72.0826C57.8878 72.0826 57.23 71.2569 57.23 70.0734C57.23 68.8899 57.8878 68.0642 58.8745 68.0642ZM58.8471 71.4771C59.3953 71.4771 59.8064 70.9266 59.8064 70.0734C59.8064 69.2477 59.3953 68.6697 58.8471 68.6697C58.2989 68.6697 57.8878 69.2202 57.8878 70.0734C57.9152 70.8991 58.2989 71.4771 58.8471 71.4771Z" fill="white"/>
<path d="M62.0814 68.1468H62.7392V71.3945H64V72H62.054V68.1468H62.0814Z" fill="white"/>
<path d="M38.263 8.09174C38.263 8.11927 38.2355 8.14679 38.2355 8.20183C38.263 8.14679 38.2904 8.09174 38.2904 8.00917C38.2904 8.0367 38.2904 8.0367 38.263 8.0367C38.2904 8.0367 38.263 8.06422 38.263 8.09174Z" fill="#978967"/>
<path d="M26.6415 8.0367C26.6415 8.00917 26.6415 8.00917 26.6141 8.00917C26.6415 8.06422 26.669 8.14679 26.6964 8.20183C26.6964 8.17431 26.669 8.11927 26.669 8.09174C26.669 8.06422 26.669 8.0367 26.6415 8.0367Z" fill="#978967"/>
<path d="M37.6051 10.3211C37.6325 10.2385 37.6325 10.156 37.66 10.0734C37.66 10.1009 37.66 10.1009 37.66 10.1009C37.66 10.1835 37.6325 10.2385 37.6051 10.3211Z" fill="#978967"/>
<path d="M26.8882 8.75229C26.8882 8.72477 26.8608 8.69725 26.8608 8.66973C26.8882 8.72477 26.8882 8.77982 26.9156 8.83486V8.80734C26.9156 8.77982 26.9156 8.75229 26.8882 8.75229Z" fill="#978967"/>
<path d="M38.0163 8.77982C38.0163 8.80734 38.0163 8.80734 37.9889 8.83486C38.0163 8.77981 38.0437 8.69725 38.0437 8.6422C38.0437 8.66972 38.0163 8.69725 38.0163 8.75229C38.0437 8.75229 38.0437 8.77982 38.0163 8.77982Z" fill="#978967"/>
<path d="M27.6283 12.2202C27.6283 12.2477 27.6283 12.2752 27.6283 12.3028C27.6283 12.2752 27.6283 12.2752 27.6283 12.2477C27.6557 12.2477 27.6557 12.2477 27.6283 12.2202Z" fill="#978967"/>
<path d="M27.6009 11.9174C27.6009 11.9725 27.6009 12 27.6283 12.055C27.6283 12.0275 27.6283 12 27.6283 11.945C27.6009 11.9174 27.6009 11.9174 27.6009 11.9174Z" fill="#978967"/>
<path d="M37.5777 10.5413C37.5503 10.6239 37.5503 10.7064 37.5229 10.789C37.5229 10.7339 37.5503 10.6514 37.5777 10.5413Z" fill="#978967"/>
<path d="M27.409 10.789C27.3816 10.7064 27.3816 10.5963 27.3542 10.5138V10.4862C27.3816 10.5963 27.409 10.7339 27.409 10.844C27.409 10.8165 27.409 10.789 27.409 10.789Z" fill="#978967"/>
<path d="M27.2719 10.1284V10.1009C27.2994 10.1835 27.2994 10.2661 27.3268 10.3211C27.2994 10.2385 27.2994 10.1835 27.2719 10.1284Z" fill="#978967"/>
<path d="M27.7105 12.8257C27.7105 12.7982 27.7105 12.7706 27.7105 12.7431C27.6831 12.7706 27.6831 12.7982 27.7105 12.8257Z" fill="white"/>
<path d="M27.4912 11.1468C27.4912 11.1743 27.4912 11.2294 27.5186 11.2569C27.5186 11.2294 27.5186 11.2018 27.5186 11.2018C27.4912 11.1743 27.4912 11.1468 27.4912 11.1468Z" fill="#978967"/>
<path d="M16.418 19.211L16.6098 19.4037C16.8291 19.2385 17.2403 18.9358 17.7062 18.4404L17.5143 18.2477C17.0484 18.7706 16.6098 19.0734 16.418 19.211Z" fill="#978967"/>
<path d="M17.0758 19.8165L17.2677 20.0092C17.4869 19.844 17.8981 19.5413 18.3366 19.0734L18.1448 18.8807C17.6788 19.3761 17.2677 19.6789 17.0758 19.8165Z" fill="#978967"/>
<path d="M16.7469 19.5138L16.9388 19.7064C17.158 19.5413 17.5692 19.2385 18.0351 18.7706L17.8432 18.578C17.3773 19.0734 16.9388 19.3761 16.7469 19.5138Z" fill="#978967"/>
<path d="M15.7602 18.578L15.952 18.7706C16.1713 18.6055 16.5824 18.3027 17.0484 17.8073L16.8565 17.6147C16.3632 18.1376 15.952 18.4404 15.7602 18.578Z" fill="#978967"/>
<path d="M16.0891 18.8807L16.2809 19.0734C16.5002 18.9083 16.9114 18.6055 17.3773 18.1101L17.1854 17.9174C16.7195 18.4404 16.2809 18.7706 16.0891 18.8807Z" fill="#978967"/>
<path d="M17.3773 20.1193L17.5692 20.3119C17.7884 20.1468 18.1996 19.844 18.6381 19.3761L18.4463 19.1835C18.0077 19.7064 17.5966 20.0092 17.3773 20.1193Z" fill="#978967"/>
<path d="M16.7195 17.4771L16.5276 17.2844C16.0343 17.8073 15.5957 18.1101 15.4039 18.2477L15.5957 18.4404C15.8424 18.2752 16.2535 17.9725 16.7195 17.4771Z" fill="#978967"/>
<path d="M48.2946 19.3761L48.4865 19.1835C48.2946 19.0459 47.8835 18.7431 47.4176 18.2477L47.2257 18.4404C47.6916 18.9083 48.0754 19.211 48.2946 19.3761Z" fill="#978967"/>
<path d="M47.6642 19.9817L47.8561 19.789C47.6642 19.6514 47.2531 19.3486 46.7872 18.8807L46.5953 19.0734C47.0338 19.5413 47.4176 19.844 47.6642 19.9817Z" fill="#978967"/>
<path d="M47.9657 19.6789L48.1576 19.4862C47.9657 19.3486 47.5546 19.0459 47.0887 18.5505L46.8968 18.7431C47.3627 19.2385 47.7465 19.5413 47.9657 19.6789Z" fill="#978967"/>
<path d="M48.9525 18.7431L49.1443 18.5505C48.9525 18.4404 48.5413 18.1376 48.048 17.6147L47.8561 17.8073C48.3495 18.2752 48.7332 18.578 48.9525 18.7431Z" fill="#978967"/>
<path d="M48.6236 19.0459L48.8154 18.8532C48.6236 18.7156 48.2124 18.4404 47.7191 17.9174L47.5272 18.1101C47.9931 18.6055 48.4043 18.9083 48.6236 19.0459Z" fill="#978967"/>
<path d="M47.3353 20.2844L47.5272 20.0917C47.3353 19.9541 46.9242 19.6514 46.4583 19.1835L46.2664 19.3761C46.7323 19.844 47.1161 20.1468 47.3353 20.2844Z" fill="#978967"/>
<path d="M49.3088 18.4128L49.5007 18.2202C49.3088 18.1101 48.8977 17.8073 48.4043 17.2844L48.2124 17.4771C48.6784 17.9725 49.0895 18.2752 49.3088 18.4128Z" fill="#978967"/>
<path d="M48.2672 16.9817C47.5546 16.1284 47.0338 15.1376 46.7049 14.0092C46.5131 13.3486 46.376 12.7156 46.2116 12.1101C45.636 9.74312 45.17 7.84404 43.7448 7.84404H41.3328C39.9349 7.84404 39.469 9.7156 38.866 12.1101C38.7289 12.7156 38.5645 13.3486 38.3726 14.0092C38.0711 15.0826 37.6326 15.9083 37.1666 16.5413C36.7555 16.1284 36.1525 15.2202 35.4398 13.1835H35.0835H34.7272C35.4946 15.4128 36.2073 16.5138 36.7555 17.0642C36.2073 17.6972 35.7139 18.0275 35.5221 18.1376C35.2754 18.055 34.2338 17.4771 32.9182 13.1835H32.5893H32.4248H32.2604H31.9315C30.6158 17.5046 29.5469 18.055 29.3276 18.1376C29.1358 18.0275 28.6424 17.6697 28.0942 17.0642C28.6424 16.5413 29.3276 15.4404 30.1225 13.1835H29.7662H29.4099C28.6972 15.2202 28.0668 16.1284 27.6831 16.5413C27.2171 15.9083 26.7786 15.0826 26.4771 14.0092C26.2852 13.3486 26.1482 12.7156 25.9837 12.1101C25.4081 9.7156 24.9422 7.84404 23.5169 7.84404H21.1049C19.7071 7.84404 19.2411 9.74312 18.6381 12.1101C18.5011 12.7156 18.3366 13.3486 18.1448 14.0092C17.8158 15.1376 17.2951 16.156 16.5824 16.9817L16.3906 17.2294L16.4454 17.2844L16.6373 17.4771L16.7743 17.6147L16.9662 17.8073L17.1032 17.945L17.2951 18.1376L17.4321 18.2752L17.624 18.4679L17.761 18.6055L17.9529 18.7982L18.0899 18.9358L18.2818 19.1284L18.4188 19.2661L18.6107 19.4587L18.6655 19.5138L18.8848 19.2661C19.6523 18.4954 20.6664 17.1193 21.1872 14.945C21.379 14.2018 21.5161 13.4862 21.6805 12.7982C21.8724 11.8899 22.0642 11.0642 22.2835 10.3486C22.448 10.8716 22.6398 11.5596 22.8317 12.5505C23.3799 15.4404 24.9148 18.8532 26.5593 18.8532C27.8749 18.8532 29.2454 18.8532 29.2454 18.8532C29.7388 18.8532 30.9722 18.3303 32.4248 13.789C33.8775 18.3578 35.1109 18.8532 35.5769 18.8532H38.0711C39.9349 18.8532 41.415 15.4404 41.9906 12.5505C42.1824 11.5596 42.3743 10.8716 42.5388 10.3486C42.758 11.0367 42.9499 11.8899 43.1418 12.7982C43.2788 13.4862 43.4433 14.2018 43.6351 14.945C44.1833 17.1193 45.1974 18.4954 45.9375 19.2661L46.1567 19.5138L46.2116 19.4587L46.4034 19.2661L46.5405 19.156L46.7323 18.9633L46.8694 18.8257L47.0612 18.633L47.1983 18.4954L47.3902 18.3028L47.5272 18.1651L47.7191 17.9725L47.8561 17.8349L48.048 17.6422L48.185 17.5046L48.3769 17.3119L48.4317 17.2569L48.2672 16.9817ZM22.1465 9C22.0917 9.11009 22.0368 9.24771 21.982 9.38532C21.6531 10.211 21.4064 11.3394 21.1323 12.6055C20.9953 13.2936 20.8308 13.9817 20.639 14.7248C20.2004 16.5413 19.3782 17.7523 18.7203 18.4954L17.3773 17.1743C18.0625 16.3211 18.5559 15.3028 18.8848 14.1743C19.0767 13.5138 19.2137 12.8807 19.3782 12.2752C19.8989 10.156 20.3101 8.50459 21.1872 8.50459H21.7353H22.3109H22.4206C22.3109 8.6422 22.2287 8.80734 22.1465 9ZM27.0527 18.1651H26.8608C26.806 18.1651 26.7512 18.1376 26.6964 18.1376C26.5593 18.1101 26.3949 18.0275 26.2578 17.945C25.1615 17.2569 24.0651 15.1101 23.5443 12.4128C23.2428 10.8991 22.9413 9.9633 22.6946 9.38532C22.9413 8.86238 23.2154 8.53211 23.5717 8.53211C24.4488 8.53211 24.86 10.1835 25.3807 12.3028C25.5178 12.9083 25.6822 13.5688 25.8741 14.2294C26.1756 15.3578 26.6415 16.211 27.1349 16.8991C27.2171 17.0092 27.272 17.1193 27.3542 17.2018C27.4364 17.3119 27.4912 17.3945 27.5734 17.4771C27.8201 17.7523 28.0668 18 28.2587 18.1927L27.0527 18.1651ZM41.415 12.3853C40.8942 15.1101 39.7979 17.2294 38.7015 17.9174C38.5645 18 38.4 18.0826 38.263 18.1101C38.2081 18.1376 38.1533 18.1376 38.0985 18.1376H37.9066H36.6732C36.8925 17.945 37.1118 17.6972 37.3585 17.422C37.4407 17.3394 37.4955 17.2569 37.5777 17.1468C37.66 17.0367 37.7148 16.9541 37.797 16.844C38.2904 16.156 38.7563 15.3028 39.0578 14.1743C39.2497 13.5138 39.3867 12.8807 39.5512 12.2477C40.072 10.156 40.4831 8.47706 41.3602 8.47706C41.7165 8.47706 41.9906 8.80734 42.2373 9.33027C41.9906 9.93578 41.6891 10.8716 41.415 12.3853ZM46.239 18.4954C45.5812 17.7523 44.7589 16.5413 44.3203 14.7248C44.1285 13.9817 43.9914 13.2936 43.827 12.6055C43.5529 11.3119 43.3062 10.211 42.9773 9.38532C42.9225 9.24771 42.8677 9.13761 42.8128 9.02752C42.7306 8.83486 42.621 8.66972 42.5388 8.53211H42.6484H43.224H43.7722C44.6493 8.53211 45.0604 10.1835 45.5812 12.3028C45.7182 12.9083 45.8827 13.5688 46.0745 14.2294C46.376 15.3578 46.8968 16.3486 47.582 17.2294L46.239 18.4954Z" fill="white"/>
<path d="M33.6582 35.6972L33.2471 36.578L34.1516 36.8807L33.2471 37.211L33.6582 38.0917L32.7812 37.6789L32.4797 38.5872L32.1508 37.6789L31.2737 38.0917L31.6848 37.211L30.7803 36.8807L31.6848 36.578L31.2737 35.6972L32.1508 36.1101L32.4797 35.2018L32.7812 36.1101L33.6582 35.6972Z" fill="white"/>
<path d="M41.6069 26.3395L41.1957 27.2202L42.1002 27.5505L41.1957 27.8807L41.6069 28.7615L40.7298 28.3486L40.4283 29.2569L40.0994 28.3486L39.2223 28.7615L39.6334 27.8807L38.7289 27.5505L39.6334 27.2202L39.2223 26.3395L40.0994 26.7523L40.4283 25.844L40.7298 26.7523L41.6069 26.3395Z" fill="white"/>
<path d="M25.5726 26.3395L25.1615 27.2202L26.0659 27.5505L25.1615 27.8807L25.5726 28.7615L24.6955 28.3486L24.394 29.2569L24.0651 28.3486L23.188 28.7615L23.5991 27.8807L22.6946 27.5505L23.5991 27.2202L23.188 26.3395L24.0651 26.7523L24.394 25.844L24.6955 26.7523L25.5726 26.3395Z" fill="white"/>
<path d="M33.6857 20.8624L33.2745 21.7431L34.179 22.0734L33.2745 22.4037L33.6857 23.2844L32.8086 22.8716L32.4797 23.7798L32.1508 22.8716L31.2737 23.2844L31.6848 22.4037L30.7803 22.0734L31.6848 21.7431L31.2737 20.8624L32.1508 21.3028L32.4797 20.367L32.8086 21.3028L33.6857 20.8624Z" fill="white"/>
<path d="M42.5388 34.4862C42.4565 34.6514 42.3743 34.844 42.2921 35.0092C42.4017 34.844 42.4839 34.6789 42.5388 34.4862Z" fill="white"/>
<path d="M22.6124 35.0092C22.5302 34.8716 22.4754 34.7064 22.3931 34.5413C22.4754 34.7064 22.5302 34.844 22.6124 35.0092Z" fill="white"/>
<path d="M23.7636 36.8807C23.654 36.7156 23.5443 36.578 23.4347 36.4128C23.5443 36.578 23.654 36.7431 23.7636 36.8807Z" fill="white"/>
<path d="M23.3251 36.2202C23.2428 36.0826 23.1606 35.9725 23.0784 35.8349C23.1606 35.9725 23.2428 36.1101 23.3251 36.2202Z" fill="white"/>
<path d="M42.2098 35.2294C42.155 35.367 42.0728 35.5046 41.9906 35.6147C42.0728 35.5046 42.1276 35.367 42.2098 35.2294Z" fill="white"/>
<path d="M26.6964 8.17431C26.6964 8.20184 26.7238 8.25688 26.7512 8.2844C26.7238 8.25688 26.7238 8.22936 26.6964 8.17431Z" fill="#978967"/>
<path d="M38.0711 8.6416C38.0711 8.61438 38.0711 8.61438 38.0982 8.58716C38.0982 8.61438 38.0711 8.61438 38.0711 8.6416Z" fill="#978967"/>
<path d="M37.8792 9.24771C37.9066 9.11009 37.9615 8.97248 38.0163 8.83486C37.9615 9 37.934 9.13761 37.8792 9.24771Z" fill="#978967"/>
<path d="M26.3674 7.34862C26.3949 7.43119 26.4223 7.51376 26.4771 7.59633C26.4497 7.51376 26.4223 7.43119 26.3674 7.34862Z" fill="white"/>
<path d="M27.2445 9.93578C27.2445 9.99083 27.2719 10.0459 27.2719 10.1009C27.2445 10.0459 27.2445 9.99083 27.2445 9.93578Z" fill="#978967"/>
<path d="M26.4223 7.23793C26.4223 7.21071 26.4493 7.21071 26.4493 7.18349C26.4493 7.21071 26.4223 7.23793 26.4223 7.23793Z" fill="white"/>
<path d="M26.4771 7.12844C26.5045 7.10092 26.5045 7.07339 26.5319 7.04587C26.5319 7.07339 26.5045 7.10092 26.4771 7.12844Z" fill="#978967"/>
<path d="M38.263 6.85321C38.2904 6.88073 38.3178 6.90826 38.3178 6.9633C38.3178 6.93578 38.2904 6.88073 38.263 6.85321Z" fill="#978967"/>
<path d="M35.1657 3.7156C35.385 3.88073 35.5769 4.04587 35.7687 4.21101C35.6043 4.04587 35.385 3.88073 35.1657 3.7156Z" fill="#978967"/>
<path d="M35.988 4.37615C36.0976 4.45872 36.1799 4.54128 36.2621 4.62385C36.1799 4.54128 36.0702 4.45872 35.988 4.37615Z" fill="#978967"/>
<path d="M29.1084 4.23853C29.3276 4.04587 29.5469 3.88073 29.7936 3.68807C29.5469 3.88073 29.3276 4.07339 29.1084 4.23853Z" fill="#978967"/>
<path d="M34.5627 3.27523C34.6724 3.3578 34.8094 3.44037 34.9191 3.52294C34.8094 3.44037 34.6998 3.3578 34.5627 3.27523Z" fill="#978967"/>
<path d="M36.8651 5.20184C36.9473 5.2844 37.0021 5.33945 37.0844 5.42202C37.0021 5.33945 36.9473 5.25688 36.8651 5.20184Z" fill="#978967"/>
<path d="M38.1259 6.63303C38.1533 6.68807 38.1807 6.7156 38.2081 6.77064C38.1807 6.7156 38.1533 6.66055 38.1259 6.63303Z" fill="#978967"/>
<path d="M38.4 7.04587C38.4274 7.07339 38.4274 7.10092 38.4548 7.12844C38.4274 7.10092 38.4 7.07339 38.4 7.04587Z" fill="#978967"/>
<path d="M37.5503 5.88991C37.6051 5.94495 37.66 6.02752 37.7148 6.08257C37.66 6.02752 37.5777 5.97248 37.5503 5.88991Z" fill="#978967"/>
<path d="M37.2214 5.55963C37.2762 5.61468 37.3585 5.69725 37.4133 5.75229C37.3585 5.69725 37.3036 5.6422 37.2214 5.55963Z" fill="#978967"/>
<path d="M38.4822 7.21101C38.4822 7.23853 38.5096 7.23853 38.5096 7.23853C38.5096 7.23853 38.5096 7.21101 38.4822 7.21101Z" fill="#978967"/>
<path d="M26.7238 6.77064C26.7512 6.7156 26.7786 6.68807 26.8334 6.63303C26.7786 6.66055 26.7512 6.7156 26.7238 6.77064Z" fill="#978967"/>
<path d="M35.9332 8.42202C35.9603 8.42202 35.9603 8.42202 35.9332 8.42202C35.9603 8.42202 35.9603 8.44924 35.9332 8.42202Z" fill="#978967"/>
<path d="M27.8475 5.42202C27.9298 5.33945 27.9846 5.2844 28.0668 5.20184C27.9846 5.25688 27.9298 5.33945 27.8475 5.42202Z" fill="#978967"/>
<path d="M26.8882 6.55046C26.9704 6.44037 27.0801 6.30275 27.1897 6.16514C27.0527 6.30275 26.9704 6.44037 26.8882 6.55046Z" fill="#978967"/>
<path d="M28.6698 4.62385C28.7795 4.54128 28.8617 4.45872 28.9713 4.37615C28.8617 4.45872 28.752 4.54128 28.6698 4.62385Z" fill="#978967"/>
<path d="M27.2445 6.08257C27.2994 6.02752 27.3542 5.94495 27.409 5.88991C27.3542 5.97248 27.2994 6.02752 27.2445 6.08257Z" fill="#978967"/>
<path d="M34.179 7.07339C34.179 7.10032 34.2058 7.10032 34.179 7.07339V7.07339Z" fill="#978967"/>
<path d="M26.669 8.09174C26.669 8.11927 26.6964 8.17431 26.6964 8.20183C26.6964 8.14679 26.6964 8.11927 26.669 8.09174Z" fill="#978967"/>
<path d="M38.0437 6.52293C37.9615 6.41284 37.8792 6.30275 37.797 6.19266C37.8792 6.33027 37.9615 6.41284 38.0437 6.52293Z" fill="#978967"/>
<path d="M38.0437 8.75229C38.0437 8.72477 38.0711 8.69725 38.0711 8.6422C38.0711 8.66972 38.0437 8.69725 38.0437 8.75229Z" fill="#978967"/>
<path d="M26.3674 7.34802C26.3674 7.34802 26.3674 7.3208 26.3945 7.29358C26.3945 7.3208 26.3674 7.34802 26.3674 7.34802Z" fill="white"/>
<path d="M31.7122 2.36697C31.6026 2.42202 31.5203 2.47706 31.4107 2.55963C31.5203 2.50459 31.63 2.44954 31.7122 2.36697Z" fill="#978967"/>
<path d="M33.6034 6.68807C33.6311 6.68807 33.6311 6.7163 33.6587 6.7163C33.6311 6.7163 33.6034 6.7163 33.6034 6.68807Z" fill="#978967"/>
<path d="M33.4938 2.55963C33.4116 2.50459 33.3019 2.44954 33.2197 2.3945C33.3293 2.44954 33.4116 2.50459 33.4938 2.55963Z" fill="#978967"/>
<path d="M23.4347 36.4128C23.4073 36.3578 23.3525 36.2752 23.3251 36.2202C23.3525 36.3028 23.4073 36.3578 23.4347 36.4128Z" fill="white"/>
<path d="M42.3195 35.0092C42.2921 35.0917 42.2373 35.1468 42.2099 35.2294C42.2373 35.1468 42.2647 35.0917 42.3195 35.0092Z" fill="white"/>
<path d="M42.621 34.3761C42.5936 34.4037 42.5936 34.4587 42.5662 34.4862C42.5662 34.4587 42.5936 34.4037 42.621 34.3761Z" fill="white"/>
<path d="M23.0784 35.8624C23.0236 35.7798 22.9961 35.6972 22.9413 35.6147C22.9961 35.6972 23.051 35.7798 23.0784 35.8624Z" fill="white"/>
<path d="M22.3931 34.5413C22.3657 34.4862 22.3383 34.4312 22.3109 34.3761C22.3657 34.4312 22.3657 34.4862 22.3931 34.5413Z" fill="white"/>
<path d="M21.3516 19.0459V22.0459V29.3945C21.3516 30.5505 21.4887 31.5963 21.7353 32.5872C21.7353 32.6422 21.7627 32.6972 21.7627 32.7523C21.7902 32.8349 21.8176 32.945 21.845 33.0275C21.8998 33.1927 21.9272 33.3303 21.982 33.4954C22.0094 33.578 22.0368 33.6605 22.0642 33.7431C22.1465 33.9633 22.2287 34.1835 22.3109 34.3761C22.3383 34.4312 22.3657 34.4862 22.3931 34.5413C22.448 34.7064 22.5302 34.844 22.6124 35.0092C22.6398 35.0917 22.6946 35.1743 22.7495 35.2569C22.8043 35.3945 22.8865 35.5046 22.9413 35.6147C22.9961 35.6972 23.0236 35.7798 23.0784 35.8624C23.1606 36 23.2428 36.1101 23.3251 36.2477C23.3525 36.3027 23.4073 36.3853 23.4347 36.4404C23.5443 36.6055 23.654 36.7431 23.7636 36.9083C26.943 41.2294 32.1233 42.7706 32.4523 42.8532H32.4797C32.8086 42.7706 37.9889 41.2018 41.1683 36.9083C41.2779 36.7431 41.3876 36.6055 41.4972 36.4404C41.5246 36.3853 41.552 36.3303 41.6069 36.3027C41.6891 36.1651 41.7713 36.0275 41.8535 35.8899C41.9084 35.8073 41.9358 35.7523 41.9906 35.6697C42.0728 35.5321 42.1276 35.422 42.2099 35.2844C42.2373 35.2018 42.2921 35.1468 42.3195 35.0642C42.4017 34.8991 42.4839 34.7339 42.5662 34.5413C42.5936 34.5138 42.5936 34.4587 42.621 34.4312C42.7032 34.211 42.7854 33.9908 42.8677 33.7706C42.8951 33.6881 42.9225 33.633 42.9499 33.5505C43.0047 33.3853 43.0595 33.2477 43.0869 33.0826C43.1143 33 43.1418 32.9174 43.1692 32.8073C43.1692 32.7523 43.1966 32.6972 43.1966 32.6422C43.4433 31.6789 43.5803 30.6055 43.5803 29.4495V22.0459V19.0459H21.3516ZM32.4523 20.0092H38.5096L32.4797 24.5505L26.4223 20.0092H32.4523ZM22.6124 31.9541C22.448 31.156 22.3383 30.3028 22.3383 29.422V22.789L28.5876 27.4679L22.6124 31.9541ZM32.4797 41.8349C31.3833 41.4771 27.2171 39.9083 24.5585 36.3027L32.4797 30.3853L40.4009 36.3027C37.7422 39.9083 33.5486 41.4771 32.4797 41.8349ZM42.621 29.3945C42.621 30.3028 42.5114 31.156 42.3469 31.9266L36.3717 27.4404L42.621 22.7615V29.3945Z" fill="white"/>
<path d="M32.4796 19.9817L32.4522 20.0092H32.4796V19.9817Z" fill="white"/>
<path d="M32.0137 13.0734L32.233 13.2936L32.0137 13.0734Z" fill="white"/>
<path d="M35.1931 13.2936L35.4398 13.0734L35.1931 13.2936Z" fill="white"/>
<path d="M27.7105 13.1835C27.7105 13.156 27.7105 13.156 27.7105 13.1284C27.7105 13.0459 27.7105 12.9083 27.6831 12.7156C27.6831 12.7156 27.6831 12.7156 27.6831 12.7431C27.6831 12.7706 27.6831 12.7982 27.6831 12.8257C27.6831 12.8807 27.6831 12.9358 27.6831 12.9633C27.6831 12.9908 27.6831 12.9908 27.6831 13.0183C27.7105 13.1284 27.7105 13.1835 27.7105 13.1835Z" fill="white"/>
<path d="M27.6009 11.945C27.6009 11.9725 27.6009 12 27.6009 12.055C27.6283 12 27.6009 11.9725 27.6009 11.945Z" fill="#978967"/>
<path d="M27.546 11.6147C27.546 11.6419 27.546 11.6419 27.546 11.6419V11.6691C27.5731 11.6419 27.5731 11.6147 27.546 11.6147Z" fill="#978967"/>
<path d="M27.3542 10.5138C27.3816 10.5963 27.3816 10.7064 27.409 10.789C27.409 10.6789 27.3816 10.5963 27.3542 10.5138Z" fill="#978967"/>
<path d="M29.5469 9.88073C29.7388 9.88073 29.9032 9.71559 29.9032 9.52293C29.9032 9.33027 29.7388 9.16514 29.5469 9.16514C29.355 9.16514 29.1906 9.33027 29.1906 9.52293C29.1632 9.71559 29.3276 9.88073 29.5469 9.88073Z" fill="#978967"/>
<path d="M32.37 5.00918H32.5619V3.90826H32.8908V3.68807H32.5619V3.13762H32.37V3.68807H32.0411V3.90826H32.37V5.00918Z" fill="#978967"/>
<path d="M32.5619 6.63303H32.37V7.21101H32.0411V7.40367H32.37V8.50459H32.5619V7.40367H32.8908V7.21101H32.5619V6.63303Z" fill="#978967"/>
<path d="M32.4797 9.16514C32.2878 9.16514 32.1233 9.33027 32.1233 9.52293C32.1233 9.71559 32.2878 9.88073 32.4797 9.88073C32.6715 9.88073 32.836 9.71559 32.836 9.52293C32.836 9.33027 32.6715 9.16514 32.4797 9.16514Z" fill="#978967"/>
<path d="M35.4124 9.88073C35.6043 9.88073 35.7687 9.71559 35.7687 9.52293C35.7687 9.33027 35.6043 9.16514 35.4124 9.16514C35.2206 9.16514 35.0561 9.33027 35.0561 9.52293C35.0561 9.71559 35.2206 9.88073 35.4124 9.88073Z" fill="#978967"/>
<path d="M27.9846 7.04587C27.7927 7.04587 27.6283 7.21101 27.6283 7.40367C27.6283 7.59633 27.7927 7.76147 27.9846 7.76147C28.1764 7.76147 28.3409 7.59633 28.3409 7.40367C28.3409 7.21101 28.1764 7.04587 27.9846 7.04587Z" fill="#978967"/>
<path d="M29.4373 5.75229C29.2454 5.75229 29.0809 5.91743 29.0809 6.11009C29.0809 6.30275 29.2454 6.46789 29.4373 6.46789C29.6291 6.46789 29.7936 6.30275 29.7936 6.11009C29.821 5.91743 29.6565 5.75229 29.4373 5.75229Z" fill="#978967"/>
<path d="M36.5088 7.40367C36.5088 7.59633 36.6732 7.76147 36.8651 7.76147C37.057 7.76147 37.2214 7.59633 37.2214 7.40367C37.2214 7.21101 37.057 7.04587 36.8651 7.04587C36.6732 7.04587 36.5088 7.21101 36.5088 7.40367Z" fill="#978967"/>
<path d="M35.4124 6.49541C35.6043 6.49541 35.7687 6.33027 35.7687 6.13761C35.7687 5.94495 35.6043 5.77982 35.4124 5.77982C35.2206 5.77982 35.0561 5.94495 35.0561 6.13761C35.0561 6.33027 35.2206 6.49541 35.4124 6.49541Z" fill="#978967"/>
<path d="M33.9323 5.22936C34.1242 5.22936 34.2887 5.06422 34.2887 4.87156C34.2887 4.6789 34.1242 4.51376 33.9323 4.51376C33.7405 4.51376 33.576 4.6789 33.576 4.87156C33.576 5.06422 33.7405 5.22936 33.9323 5.22936Z" fill="#978967"/>
<path d="M30.9173 5.22936C31.1092 5.22936 31.2737 5.06422 31.2737 4.87156C31.2737 4.6789 31.1092 4.51376 30.9173 4.51376C30.7255 4.51376 30.561 4.6789 30.561 4.87156C30.561 5.06422 30.6981 5.22936 30.9173 5.22936Z" fill="#978967"/>
<path d="M38.5096 7.23853C38.5096 7.26576 38.5367 7.29298 38.5367 7.29298C38.5367 7.29298 38.5367 7.26576 38.5096 7.23853Z" fill="#978967"/>
<path d="M38.3178 7.98165C38.4 7.76147 38.4822 7.54129 38.5644 7.34863C38.4822 7.56881 38.4 7.76147 38.3178 7.98165Z" fill="#978967"/>
<path d="M27.4364 10.844C27.4638 10.9266 27.4638 11.0367 27.4912 11.1468C27.4912 11.0917 27.4638 11.0367 27.4638 10.9817C27.4364 10.9266 27.4364 10.8991 27.4364 10.844Z" fill="#978967"/>
<path d="M26.9156 8.83486C27.0253 9.19266 27.1349 9.57798 27.2171 9.93578C27.1349 9.57798 27.0527 9.22018 26.9156 8.83486Z" fill="#978967"/>
<path d="M26.7512 8.31193C26.7786 8.42202 26.8334 8.55963 26.8608 8.66973C26.8334 8.53211 26.7786 8.42202 26.7512 8.31193Z" fill="#978967"/>
<path d="M38.0985 8.58716C38.1533 8.44954 38.1807 8.31193 38.2355 8.17431C38.1807 8.31193 38.1259 8.44954 38.0985 8.58716Z" fill="#978967"/>
<path d="M37.6051 10.3211C37.6051 10.3761 37.5777 10.4312 37.5777 10.4862C37.6051 10.4312 37.6051 10.3761 37.6051 10.3211Z" fill="#978967"/>
<path d="M27.5186 11.2569C27.546 11.367 27.546 11.4495 27.5734 11.5321C27.5734 11.5046 27.5734 11.4495 27.546 11.422C27.5186 11.367 27.5186 11.3119 27.5186 11.2569Z" fill="#978967"/>
<path d="M37.8244 9.44037C37.8244 9.46789 37.8244 9.46789 37.8244 9.44037C37.8518 9.38532 37.8518 9.30275 37.8792 9.24771C37.8792 9.33027 37.8518 9.38532 37.8244 9.44037Z" fill="#978967"/>
<path d="M26.4771 7.59633C26.5319 7.73395 26.5867 7.87156 26.6415 8.00917C26.5867 7.84404 26.5319 7.70642 26.4771 7.59633Z" fill="#978967"/>
<path d="M26.8334 6.63303C26.8608 6.60551 26.8608 6.57798 26.8882 6.55046C26.8608 6.57798 26.8334 6.60551 26.8334 6.63303Z" fill="#978967"/>
<path d="M28.478 4.78899C28.5328 4.73394 28.5876 4.6789 28.6424 4.62385C28.615 4.6789 28.5328 4.73394 28.478 4.78899Z" fill="#978967"/>
<path d="M27.409 5.88991C27.4364 5.83486 27.4912 5.80734 27.5186 5.75229C27.4912 5.80734 27.4364 5.86238 27.409 5.88991Z" fill="#978967"/>
<path d="M27.6831 12.4954C27.6831 12.4679 27.6831 12.4404 27.6831 12.4128C27.6557 12.4404 27.6557 12.4679 27.6831 12.4954Z" fill="#978967"/>
<path d="M26.4497 7.18289C26.4497 7.15566 26.4768 7.15566 26.4768 7.12844C26.4768 7.15566 26.4768 7.18289 26.4497 7.18289Z" fill="#BFA05F"/>
<path d="M26.3949 7.29358C26.3949 7.29358 26.3949 7.26605 26.4223 7.26605C26.4223 7.26605 26.4223 7.26605 26.3949 7.29358Z" fill="#BFA05F"/>
<path d="M38.4548 7.12844C38.4822 7.15596 38.4822 7.18349 38.5096 7.21101C38.4822 7.18349 38.4548 7.15596 38.4548 7.12844Z" fill="#978967"/>
<path d="M37.4133 5.75229C37.4681 5.80734 37.4955 5.83486 37.5503 5.88991C37.4955 5.86238 37.4681 5.80734 37.4133 5.75229Z" fill="#978967"/>
<path d="M38.2081 6.74312C38.2355 6.77064 38.2629 6.82569 38.2904 6.85321C38.2629 6.82569 38.2355 6.79816 38.2081 6.74312Z" fill="#978967"/>
<path d="M37.0844 5.3945C37.1392 5.44954 37.194 5.50459 37.2214 5.55963C37.1666 5.50459 37.1392 5.44954 37.0844 5.3945Z" fill="#978967"/>
<path d="M37.6874 6.08257C37.7148 6.11009 37.7422 6.16514 37.7696 6.19266C37.7696 6.16514 37.7422 6.13761 37.6874 6.08257Z" fill="#978967"/>
<path d="M34.9191 3.52294C35.0013 3.57798 35.0835 3.66055 35.1657 3.7156C35.0835 3.66055 35.0013 3.6055 34.9191 3.52294Z" fill="#978967"/>
<path d="M27.6283 12.055C27.6283 12.1101 27.6283 12.1651 27.6557 12.2202C27.6557 12.1927 27.6557 12.1927 27.6557 12.1651C27.6283 12.1376 27.6283 12.1101 27.6283 12.055Z" fill="#978967"/>
<path d="M36.2621 4.62385C36.3169 4.6789 36.3991 4.73394 36.454 4.78899C36.3991 4.73394 36.3443 4.6789 36.2621 4.62385Z" fill="#978967"/>
<path d="M27.5735 11.6972C27.5735 11.7798 27.6009 11.8349 27.6009 11.9174C27.6009 11.8899 27.6009 11.8349 27.5735 11.8073C27.5735 11.7523 27.5735 11.7248 27.5735 11.6972Z" fill="#978967"/>
<path d="M37.4681 11.0092C37.4681 10.9541 37.4955 10.8716 37.4955 10.789C37.4955 10.789 37.4955 10.789 37.4955 10.8165C37.4955 10.8991 37.4955 10.9541 37.4681 11.0092Z" fill="#978967"/>
<path d="M37.3859 11.5046C37.3859 11.5321 37.3859 11.5321 37.3859 11.5321C37.4133 11.3945 37.4407 11.2569 37.4681 11.0917C37.4681 11.1193 37.4681 11.1193 37.4681 11.1468C37.4407 11.2844 37.4133 11.3945 37.3859 11.5046Z" fill="#978967"/>
<path d="M37.3036 12.2202C37.3036 12.2477 37.3036 12.2477 37.3036 12.2477C37.3036 12.3578 37.2762 12.4679 37.2762 12.5505V12.578C37.2762 12.633 37.2762 12.6881 37.2762 12.7156C37.2762 12.7431 37.2762 12.7431 37.2762 12.7706C37.2762 12.8257 37.2762 12.8807 37.2762 12.9358C37.2762 12.9633 37.2762 12.9908 37.2762 12.9908C37.2762 13.0183 37.2762 13.0183 37.2762 13.0459C37.2762 13.0734 37.2762 13.1009 37.2762 13.1284C37.2762 13.156 37.2762 13.156 37.2762 13.156C37.2762 13.156 37.3036 12.5229 37.4407 11.5596V11.5872C37.3585 11.8349 37.331 12.0275 37.3036 12.2202Z" fill="#978967"/>
<path d="M26.669 8.06422C26.669 8.0367 26.6415 8.00917 26.6415 7.98165C26.6415 8.00917 26.6415 8.00917 26.669 8.00917C26.669 8.0367 26.669 8.06422 26.669 8.06422Z" fill="#978967"/>
<path d="M35.9606 8.44954C36.3443 8.7523 36.6458 9.05505 36.9199 9.3578C36.6732 9.05505 36.3443 8.7523 35.9606 8.44954Z" fill="#978967"/>
<path d="M27.546 11.4495C27.546 11.4771 27.546 11.5321 27.5734 11.5596C27.5734 11.5872 27.5734 11.5872 27.5734 11.6147C27.546 11.5596 27.546 11.5046 27.546 11.4495Z" fill="#978967"/>
<path d="M27.409 10.789C27.409 10.8162 27.409 10.8162 27.409 10.8162V10.8434C27.4361 10.8162 27.4361 10.8162 27.409 10.789Z" fill="#978967"/>
<path d="M26.8608 8.6422C26.8882 8.66972 26.8882 8.69725 26.8882 8.75229V8.77982V8.80734C26.8882 8.80734 26.8882 8.80734 26.8882 8.83486C26.9156 8.77981 26.8882 8.72477 26.8608 8.6422Z" fill="#978967"/>
<path d="M37.4407 11.1743C37.4407 11.1468 37.4407 11.1468 37.4407 11.1193C37.4407 11.0917 37.4407 11.0642 37.4681 11.0367C37.4681 11.0367 37.4681 11.0367 37.4681 11.0092C37.4681 11.0642 37.4681 11.1193 37.4407 11.1743Z" fill="#978967"/>
<path d="M35.9332 8.42202C35.8236 8.31193 35.6865 8.22936 35.5769 8.11927C35.7139 8.22936 35.8236 8.31193 35.9332 8.42202Z" fill="#978967"/>
<path d="M27.4638 10.9817C27.4638 11.0367 27.4912 11.0917 27.4912 11.1468C27.4912 11.1743 27.4912 11.1743 27.4912 11.2018C27.4912 11.1193 27.4638 11.0642 27.4638 10.9817Z" fill="#978967"/>
<path d="M38.0163 8.77922C38.0163 8.75199 38.0163 8.75199 38.0433 8.72477C38.0433 8.75199 38.0163 8.77922 38.0163 8.77922Z" fill="#978967"/>
<path d="M34.2064 7.10092C34.7272 7.45872 35.1657 7.78899 35.5769 8.11927C35.1657 7.78899 34.6998 7.43119 34.2064 7.10092Z" fill="#978967"/>
<path d="M38.2355 8.20183C38.263 8.14679 38.263 8.11927 38.263 8.09174C38.263 8.06422 38.263 8.06422 38.2904 8.0367C38.2904 8.00917 38.2904 8.00917 38.3178 8.00917C38.2904 8.06422 38.263 8.11927 38.2355 8.20183Z" fill="#978967"/>
<path d="M37.2762 12.578V12.6055C37.2488 12.578 37.2488 12.578 37.2762 12.578Z" fill="#BFA05F"/>
<path d="M27.6283 12.1927C27.6283 12.2202 27.6283 12.2202 27.6283 12.2477C27.6283 12.2752 27.6283 12.2752 27.6283 12.2752C27.6557 12.2477 27.6283 12.2202 27.6283 12.1927Z" fill="#978967"/>
<path d="M27.5735 11.7798C27.5735 11.8073 27.5735 11.8624 27.6009 11.8899V11.9174C27.6009 11.8899 27.6009 11.8349 27.5735 11.7798Z" fill="#978967"/>
<path d="M38.3178 7.98165C38.4 7.76147 38.4822 7.54128 38.5919 7.34862C38.4822 7.56881 38.4 7.76147 38.3178 7.98165Z" fill="#978967"/>
<path d="M37.6874 10.0734C37.7422 9.88073 37.797 9.68807 37.8244 9.46789C37.7696 9.68807 37.7148 9.88073 37.6874 10.0734Z" fill="#978967"/>
<path d="M37.8244 9.44037C37.8518 9.38532 37.8518 9.30275 37.8792 9.24771C37.9066 9.11009 37.9614 8.97248 37.9889 8.83486C37.934 9.05505 37.8792 9.24771 37.8244 9.44037Z" fill="#978967"/>
<path d="M38.0711 8.6422C38.0711 8.61468 38.0711 8.61468 38.0985 8.58716C38.1533 8.44954 38.1807 8.31193 38.2355 8.20184C38.1807 8.33945 38.1259 8.50459 38.0711 8.6422Z" fill="#978967"/>
<path d="M26.9156 8.83486C27.0253 9.22018 27.1349 9.57798 27.2171 9.93578C27.2171 9.99082 27.2445 10.0459 27.2445 10.1009C27.1623 9.68807 27.0527 9.27523 26.9156 8.83486Z" fill="#978967"/>
<path d="M26.3674 7.34862C26.3949 7.43119 26.4223 7.51376 26.4497 7.56881C26.5045 7.70642 26.5593 7.84404 26.6141 7.98165C26.5593 7.78899 26.4771 7.56881 26.3674 7.34862Z" fill="#978967"/>
<path d="M26.6964 8.20184C26.6964 8.22936 26.7238 8.2844 26.7238 8.31193C26.7512 8.42202 26.806 8.53211 26.8334 8.6422C26.8334 8.50459 26.7512 8.33945 26.6964 8.20184Z" fill="#978967"/>
<path d="M36.9473 9.3578C37.057 9.46789 37.1118 9.55046 37.2214 9.63303C37.1392 9.52294 37.0296 9.44037 36.9473 9.3578Z" fill="#978967"/>
<path d="M27.6283 12.0275C27.6283 12.055 27.6283 12.055 27.6283 12.0275C27.6283 12.0826 27.6557 12.1376 27.6557 12.1651C27.6283 12.1376 27.6283 12.0826 27.6283 12.0275Z" fill="#978967"/>
<path d="M27.5186 11.2569C27.5186 11.3119 27.546 11.367 27.546 11.422C27.5186 11.367 27.5186 11.3119 27.5186 11.2569Z" fill="#978967"/>
<path d="M27.4638 10.9817C27.4638 10.9266 27.4364 10.8991 27.4364 10.844C27.4364 10.8991 27.4364 10.9266 27.4638 10.9817Z" fill="#978967"/>
<path d="M37.3859 11.6147C37.3585 11.8349 37.3311 12.055 37.3036 12.2202C37.3311 12.0275 37.3585 11.8349 37.3859 11.6147Z" fill="#978967"/>
<path d="M37.5229 10.8165C37.5229 10.8716 37.4955 10.9541 37.4955 11.0092C37.4955 10.9541 37.4955 10.8991 37.5229 10.8165Z" fill="#978967"/>
<path d="M37.4407 11.1743C37.4133 11.2844 37.4133 11.3945 37.3859 11.5046C37.4133 11.3945 37.4407 11.2844 37.4407 11.1743Z" fill="#978967"/>
<path d="M37.3036 12.2477C37.3036 12.3578 37.2762 12.4679 37.2762 12.5505C37.2762 12.4679 37.2762 12.3853 37.3036 12.2477Z" fill="#978967"/>
<path d="M38.537 7.3211C38.537 7.29358 38.5096 7.26605 38.5096 7.23853L38.4822 7.21101C38.4822 7.18349 38.4548 7.15596 38.4274 7.12844C38.4274 7.10092 38.4 7.07339 38.3726 7.04587C38.3452 7.01835 38.3452 6.99082 38.3178 6.9633C38.2904 6.93578 38.2904 6.90826 38.263 6.85321C38.2355 6.82569 38.2081 6.79816 38.1807 6.74312C38.1533 6.7156 38.1259 6.66055 38.0985 6.6055C38.0711 6.57798 38.0437 6.55046 38.0163 6.49541C37.934 6.38532 37.8518 6.27523 37.7696 6.16514C37.7422 6.13761 37.7148 6.08257 37.6874 6.05505C37.6325 6 37.5777 5.94495 37.5229 5.86238C37.4955 5.80734 37.4407 5.77982 37.3859 5.72477C37.331 5.66972 37.2488 5.58716 37.194 5.53211C37.1392 5.47706 37.0844 5.42202 37.057 5.36697C37.0021 5.2844 36.9199 5.22936 36.8377 5.14679C36.7829 5.09174 36.728 5.0367 36.6732 4.98165C36.591 4.89908 36.5088 4.81651 36.4265 4.76147C36.3717 4.70642 36.2895 4.65138 36.2347 4.59633C36.1525 4.51376 36.0428 4.43119 35.9606 4.34862C35.9058 4.29358 35.8235 4.23853 35.7687 4.18349C35.5769 4.01835 35.385 3.85321 35.1657 3.68807C35.0835 3.63303 35.0013 3.55046 34.9191 3.49541C34.8094 3.41284 34.6998 3.33028 34.5627 3.24771C34.4805 3.19266 34.4257 3.13761 34.3435 3.08257L34.4805 0H30.4788L30.6158 3.11009C30.5336 3.16514 30.4788 3.22018 30.3966 3.27523C30.2595 3.3578 30.1499 3.44037 30.0403 3.52294C29.958 3.57798 29.9032 3.63303 29.821 3.68807C29.5743 3.88073 29.3276 4.07339 29.1358 4.23853C29.0809 4.26605 29.0261 4.3211 28.9713 4.37615C28.8617 4.45871 28.7794 4.54128 28.6698 4.62385C28.615 4.6789 28.5602 4.73394 28.5053 4.78899C28.4231 4.87156 28.3409 4.95413 28.2587 5.0367C28.2038 5.09174 28.149 5.14679 28.0942 5.20183C28.012 5.2844 27.9572 5.36697 27.8749 5.42202C27.8201 5.47706 27.7927 5.53211 27.7379 5.55963C27.6831 5.6422 27.6009 5.69725 27.546 5.77982C27.5186 5.83486 27.4638 5.86238 27.4364 5.91743C27.3816 5.97248 27.3268 6.05505 27.2719 6.11009C27.2445 6.13761 27.2171 6.16514 27.1897 6.19266C27.0801 6.33027 26.9704 6.44037 26.8882 6.57798C26.8608 6.6055 26.8608 6.63303 26.8334 6.66055C26.806 6.7156 26.7786 6.77064 26.7238 6.79816C26.6964 6.82569 26.6964 6.85321 26.6689 6.88073C26.6415 6.90826 26.6141 6.9633 26.5867 6.99083C26.5593 7.01835 26.5593 7.04587 26.5319 7.07339C26.5045 7.10092 26.5045 7.12844 26.4771 7.15596C26.4771 7.18349 26.4497 7.18349 26.4497 7.21101C26.4497 7.23853 26.4223 7.26605 26.4223 7.26605C26.4223 7.26605 26.4223 7.29358 26.3949 7.29358C26.3674 7.3211 26.3674 7.34862 26.3674 7.34862C26.4497 7.56881 26.5319 7.76147 26.6141 7.98165C26.6141 8.00917 26.6415 8.0367 26.6415 8.06422C26.6415 8.09174 26.6689 8.14679 26.6689 8.17431C26.7238 8.33945 26.7786 8.47706 26.8334 8.6422C26.8608 8.69725 26.8608 8.75229 26.8882 8.83486C27.0253 9.27523 27.1349 9.68807 27.2171 10.0734C27.2171 10.1009 27.2171 10.1009 27.2171 10.1009C27.2171 10.156 27.2445 10.2385 27.2445 10.2936C27.2445 10.3486 27.2719 10.4037 27.2719 10.4587V10.4862C27.2994 10.5688 27.2994 10.6789 27.3268 10.7615C27.3268 10.789 27.3268 10.789 27.3268 10.8165C27.3268 10.8716 27.3542 10.8991 27.3542 10.9541C27.3542 11.0367 27.3816 11.0917 27.3816 11.1743C27.3816 11.2018 27.3816 11.2294 27.3816 11.2569C27.3816 11.3119 27.409 11.367 27.409 11.422C27.409 11.4771 27.4364 11.5321 27.4364 11.5872C27.4364 11.6147 27.4364 11.6147 27.4364 11.6422C27.4364 11.6697 27.4364 11.7248 27.4638 11.7523C27.4638 11.8073 27.4638 11.8624 27.4912 11.8899C27.4912 11.9174 27.4912 11.945 27.4912 12C27.4912 12.055 27.4912 12.0826 27.5186 12.1376C27.5186 12.1651 27.5186 12.1927 27.5186 12.2202C27.5186 12.2477 27.5186 12.2752 27.5186 12.3303C27.5186 12.3853 27.5186 12.4128 27.5186 12.4679C27.5186 12.5229 27.5186 12.578 27.546 12.633C27.546 12.6606 27.546 12.6605 27.546 12.6881C27.5734 12.8807 27.5734 13.0459 27.5734 13.1009C27.5734 13.1284 27.5734 13.1284 27.5734 13.1284H29.3002H34.9739H35.3302H37.057V13.1009C37.057 13.0734 37.057 13.0459 37.057 13.0183C37.057 12.9908 37.057 12.9908 37.057 12.9633C37.057 12.9358 37.057 12.9083 37.057 12.9083C37.057 12.8532 37.057 12.7982 37.057 12.7431C37.057 12.7156 37.057 12.7156 37.057 12.6881C37.057 12.633 37.057 12.6055 37.057 12.5505V12.5229C37.057 12.4404 37.0844 12.3303 37.0844 12.2202C37.0844 12.1927 37.0844 12.1927 37.0844 12.1927C37.1118 12 37.1392 11.8073 37.1666 11.5872C37.1666 11.5596 37.1666 11.5321 37.1666 11.5046C37.194 11.3945 37.194 11.2844 37.2214 11.1743C37.2214 11.1193 37.2488 11.0642 37.2488 11.0092C37.2488 10.9541 37.2762 10.8716 37.2762 10.8165C37.2762 10.789 37.2762 10.7615 37.3036 10.7339C37.3036 10.6789 37.331 10.6239 37.331 10.5688C37.331 10.5413 37.331 10.5413 37.331 10.5138V10.4862C37.331 10.4312 37.3585 10.3761 37.3585 10.3211C37.3859 10.2661 37.3859 10.1835 37.4133 10.1009C37.4133 10.0734 37.4133 10.0734 37.4133 10.0734C37.4681 9.88073 37.5229 9.68807 37.5503 9.46789C37.6051 9.27523 37.66 9.08257 37.7148 8.86238C37.7148 8.83486 37.7148 8.83486 37.7148 8.80734C37.7148 8.77982 37.7148 8.77982 37.7422 8.75229C37.7422 8.72477 37.7696 8.69725 37.7696 8.6422C37.8244 8.50459 37.8792 8.33945 37.934 8.20183C37.9614 8.14679 37.9889 8.06422 38.0163 7.98165C38.0985 7.76147 38.1807 7.54128 38.2904 7.34862C38.5644 7.34862 38.5645 7.3211 38.537 7.3211ZM33.5486 0.550459L32.4522 1.73394L31.3559 0.550459H33.5486ZM33.8775 1.01835L33.8227 2.75229C33.7131 2.69725 33.6034 2.61468 33.5212 2.55963C33.439 2.50459 33.3293 2.44954 33.2471 2.3945C33.1101 2.31193 33.0004 2.22936 32.8634 2.14679L33.8775 1.01835ZM32.0959 2.14679C31.9589 2.22936 31.8492 2.31193 31.7122 2.36697C31.6026 2.42202 31.5203 2.47706 31.4107 2.55963C31.3011 2.61468 31.2188 2.69725 31.1092 2.75229L31.027 1.01835L32.0959 2.14679ZM29.4373 11.5596H29.1083V11.7798H29.4373V12.633H28.2313C28.2039 12.2477 28.149 11.6972 28.012 11.0642H29.4098L29.4373 11.5596ZM27.9298 10.4862C27.8749 10.211 27.7927 9.90826 27.7379 9.6055C27.8201 9.52294 27.9024 9.41284 28.012 9.33027C28.0668 9.27523 28.1216 9.22018 28.1764 9.16514C28.2313 9.11009 28.2587 9.08257 28.3135 9.02752C28.3957 8.97248 28.4505 8.88991 28.5328 8.80734C28.5602 8.77982 28.615 8.75229 28.6424 8.69725C28.7246 8.61468 28.8068 8.53211 28.9165 8.47706C28.9439 8.44954 28.9713 8.42202 29.0261 8.3945C29.1083 8.31193 29.218 8.22936 29.3276 8.14679C29.355 8.11927 29.4098 8.09174 29.4373 8.06422C29.5469 7.98165 29.6565 7.89908 29.7388 7.81651C29.7662 7.78899 29.821 7.76147 29.8484 7.73394C29.958 7.65138 30.0677 7.56881 30.1773 7.48624C30.2321 7.45871 30.2869 7.40367 30.3143 7.37615C30.424 7.29358 30.5336 7.21101 30.6707 7.12844C30.6981 7.10092 30.7255 7.10092 30.7529 7.07339L30.8899 10.4862H27.9298ZM32.37 12.633H29.6565V11.7798H29.9306H29.9854V11.6147V11.5596H29.6565V11.0367H32.37V11.5596H32.0411V11.7798H32.37V12.633ZM32.4797 6C32.4797 6.02752 32.4797 6.02752 32.4797 6L33.6034 6.68807C33.6308 6.68807 33.6308 6.7156 33.6582 6.7156C33.6308 7.15596 33.576 8.94495 33.4938 10.4862H31.4381L31.2737 6.7156L32.4797 6ZM35.3028 11.5596H34.9739V11.7798H35.3028V12.633H32.5893V11.7798H32.9182V11.5596H32.5893V11.0367H35.3302V11.5596H35.3028ZM36.7006 12.633H35.5221V11.7798H35.851V11.5596H35.5221V11.0367H36.9199C36.7829 11.6972 36.728 12.2477 36.7006 12.633ZM37.0021 10.4862H34.042C34.0694 9.79816 34.1516 7.65138 34.179 7.07339C34.6998 7.43119 35.1383 7.76147 35.5495 8.09174C35.5495 8.09174 35.5495 8.09174 35.5769 8.11927C35.7139 8.22936 35.8236 8.31193 35.9332 8.42202L35.9606 8.44954C36.3443 8.75229 36.6458 9.05505 36.9199 9.3578C37.0295 9.46789 37.0844 9.55046 37.194 9.63303C37.1392 9.93578 37.057 10.211 37.0021 10.4862ZM37.66 8.17431C37.5503 8.44954 37.4681 8.72477 37.3859 9C36.6184 8.22936 35.4946 7.26605 33.9597 6.27523C33.576 6.02752 33.1923 5.77982 32.7537 5.53211L32.4797 5.36697L32.2056 5.53211C31.767 5.77982 31.3833 6.02752 30.9996 6.27523C29.4373 7.26605 28.3409 8.22936 27.5734 9C27.409 8.47706 27.2445 7.9266 26.9979 7.37615C27.3268 6.85321 28.3683 5.33945 30.8899 3.57798C31.3559 3.24771 31.8767 2.91743 32.4797 2.55963C33.0552 2.88991 33.576 3.24771 34.0694 3.57798C36.5636 5.33945 37.6325 6.82569 37.9615 7.37615C37.8518 7.65138 37.7422 7.89908 37.66 8.17431Z" fill="#978967"/>
<path d="M37.5503 45.3853L37.331 45.5229L35.5769 44.0917L35.9058 43.8716L37.1392 44.9174L36.7829 43.3486L37.1118 43.156L37.5503 45.3853Z" fill="white"/>
<path d="M37.4407 42.9083L37.7422 42.6881L38.9482 44.422L38.6467 44.6422L37.4407 42.9083Z" fill="white"/>
<path d="M38.6741 42L38.9756 41.7798L40.8394 43.0459L40.5379 43.2936L40.0994 42.9908L39.4964 43.4587L39.6608 43.9541L39.3593 44.1743L38.6741 42ZM39.8253 42.7706L39.0578 42.2202L39.3593 43.1009L39.8253 42.7706Z" fill="white"/>
<path d="M40.3734 40.6789L40.6475 40.4587L41.7713 41.8349L42.3195 41.3945L42.5388 41.6422L41.7165 42.3303L40.3734 40.6789Z" fill="white"/>
<path d="M41.4972 39.7431L41.7713 39.4954L42.621 40.5138C42.8403 40.7615 43.0595 40.789 43.2514 40.6239C43.4432 40.4587 43.4707 40.2385 43.2514 39.9633L42.4017 38.945L42.6758 38.7248L43.4981 39.7156C43.827 40.1284 43.827 40.5413 43.4432 40.8716C43.0595 41.1743 42.6484 41.1193 42.3195 40.7064L41.4972 39.7431Z" fill="white"/>
<path d="M43.7448 39.1927C43.361 38.6422 43.4433 38.0642 43.8544 37.789C44.0463 37.6514 44.2655 37.6239 44.43 37.6514L44.6767 37.9816C44.4848 37.9266 44.2381 37.9266 44.0737 38.0367C43.827 38.2018 43.7996 38.6147 44.0463 38.945C44.3203 39.3578 44.6767 39.4404 44.9233 39.2752C45.0878 39.1651 45.17 38.945 45.2248 38.7248L45.4167 39.0826C45.3619 39.2477 45.2523 39.4404 45.0604 39.578C44.6767 39.8532 44.1285 39.7431 43.7448 39.1927Z" fill="white"/>
<path d="M45.1152 37.1009L45.4441 36.9633L46.2664 38.9174L45.9375 39.055L45.1152 37.1009Z" fill="white"/>
<path d="M46.9242 36.4954C47.1161 36.4679 47.3079 36.4954 47.445 36.5505L47.4998 36.9358C47.3079 36.8257 47.1435 36.7706 46.979 36.7982C46.8146 36.8257 46.7323 36.9358 46.7597 37.0734C46.7872 37.211 46.8694 37.2661 47.1709 37.3761C47.5272 37.5138 47.7191 37.6514 47.7739 37.9541C47.8287 38.3119 47.6094 38.5872 47.2257 38.6422C47.0064 38.6697 46.8146 38.6422 46.6501 38.5596L46.5131 38.1468C46.7323 38.2844 46.979 38.367 47.1435 38.3394C47.3079 38.3119 47.4176 38.2018 47.3902 38.0367C47.3627 37.8991 47.2531 37.8165 46.979 37.7064C46.6501 37.5688 46.4308 37.4587 46.376 37.1284C46.3486 36.8257 46.5405 36.578 46.9242 36.4954Z" fill="white"/>
<path d="M16.7469 38.422H16.5002L15.7876 36.2752H16.1713L16.6373 37.8165L17.158 36.3028H17.5418L16.7469 38.422Z" fill="white"/>
<path d="M18.2544 36.4954L18.6107 36.6055L18.0351 38.6422L17.6788 38.5321L18.2544 36.4954Z" fill="white"/>
<path d="M20.0634 37.156L20.3923 37.3486L20.036 39.578L19.7071 39.3853L19.8167 38.8624L19.1315 38.5046L18.7477 38.8624L18.4188 38.6972L20.0634 37.156ZM19.8441 38.5321L20.0086 37.6239L19.3233 38.2569L19.8441 38.5321Z" fill="white"/>
<path d="M21.379 39.3578C21.7902 38.8624 22.3932 38.7798 22.7495 39.0826C22.9413 39.2477 23.0236 39.4404 23.051 39.6055L22.7769 39.9358C22.7769 39.7156 22.7221 39.5229 22.5576 39.3853C22.3383 39.1927 21.9546 39.2752 21.6805 39.6055C21.379 39.9908 21.379 40.3486 21.5983 40.5413C21.7627 40.6789 21.982 40.7064 22.2013 40.6789L21.8998 40.9541C21.7079 40.9541 21.5161 40.8991 21.3242 40.7339C20.9679 40.4587 20.9405 39.9083 21.379 39.3578Z" fill="white"/>
<path d="M23.1332 41.1468L23.0236 41.0642L22.5028 41.6972L22.2287 41.4495L23.5991 39.8257L24.0377 40.1835C24.3392 40.4587 24.4214 40.789 24.1747 41.1193C23.9829 41.3394 23.7362 41.3945 23.4895 41.3119L23.3799 42.3853L23.051 42.1101L23.1332 41.1468ZM23.6266 40.3211L23.188 40.844L23.3251 40.9541C23.4895 41.0917 23.6814 41.0917 23.8184 40.8991C23.9555 40.7339 23.9281 40.5688 23.7636 40.4312L23.6266 40.3211Z" fill="white"/>
<path d="M24.8874 40.9541L25.1615 41.1743L24.3392 42.2202C24.1199 42.4679 24.1473 42.7156 24.3392 42.8807C24.5311 43.0459 24.7503 43.0183 24.9696 42.7431L25.7919 41.6972L26.066 41.9174L25.2437 42.9358C24.9148 43.3486 24.5036 43.4312 24.1199 43.1009C23.7362 42.7982 23.7088 42.3853 24.0377 41.9725L24.8874 40.9541Z" fill="white"/>
<path d="M25.8193 43.0459C26.203 42.5229 26.7786 42.3853 27.1623 42.6881C27.3542 42.8257 27.4638 43.0183 27.4912 43.1835L27.2445 43.5138C27.2171 43.3211 27.1349 43.1009 26.9705 42.9633C26.7238 42.7982 26.3675 42.9083 26.0934 43.2661C25.8193 43.6514 25.8467 44.0367 26.0934 44.2018C26.2578 44.3119 26.4771 44.3394 26.6964 44.3119L26.4223 44.6147C26.2304 44.6147 26.0385 44.5872 25.8467 44.4495C25.4904 44.1743 25.4355 43.6239 25.8193 43.0459Z" fill="white"/>
<path d="M28.0394 43.3211L28.3409 43.5138L27.2171 45.3028L26.9156 45.1101L28.0394 43.3211Z" fill="white"/>
<path d="M29.3002 44.0367C29.4647 44.1468 29.6017 44.2569 29.6565 44.422L29.4647 44.7523C29.3824 44.5596 29.2728 44.3945 29.1358 44.3395C28.9987 44.2569 28.8617 44.2844 28.8069 44.422C28.752 44.5596 28.7794 44.6422 28.9439 44.9174C29.1358 45.2477 29.218 45.4954 29.0535 45.7431C28.8891 46.0734 28.5328 46.1284 28.2039 45.9633C28.012 45.8532 27.8749 45.6881 27.8201 45.5229L27.9846 45.1101C28.0668 45.3578 28.2039 45.578 28.3683 45.6605C28.5054 45.7431 28.6698 45.7156 28.752 45.578C28.8343 45.4404 28.7794 45.3303 28.615 45.0826C28.4505 44.7798 28.3409 44.5321 28.5054 44.2569C28.6424 43.9266 28.9713 43.844 29.3002 44.0367Z" fill="white"/>
<path d="M30.4514 45.0826V45.8807V47.7523C27.0801 46.6239 23.5717 43.6514 20.9405 41.4495C20.5842 41.1468 20.2278 40.844 19.8989 40.5963C19.8441 40.5688 19.8167 40.5413 19.7619 40.4862C19.5974 40.3486 19.4604 40.2385 19.2959 40.156C19.1589 40.0459 18.9944 39.9633 18.8574 39.8807C18.4188 39.633 18.0077 39.4679 17.6514 39.3578L16.7743 39.1927C16.6373 39.1927 16.5276 39.1651 16.418 39.1651C15.9246 39.1651 15.4587 39.2752 15.075 39.4404C14.9927 39.4679 14.8831 39.5229 14.8009 39.578C14.7735 39.4954 14.7735 39.3853 14.746 39.3028C14.7186 39.1927 14.6912 39.0826 14.6638 38.9725C14.5816 38.6697 14.472 38.3395 14.3349 38.0092C14.1705 37.5963 14.2527 37.1009 14.5542 36.6605C15.0201 35.9725 15.8972 35.5872 16.9662 35.5872C17.5692 35.5872 18.227 35.6972 18.9396 35.945C20.639 36.5229 22.8043 38.2844 24.9148 39.9908C26.7786 41.5046 28.7246 43.1009 30.4788 43.9817L30.4514 45.0826ZM51.337 37.2661C51.337 37.2385 51.337 37.1835 51.337 37.156C51.3096 37.0734 51.3096 36.9908 51.2822 36.8807C51.2822 36.8532 51.2822 36.8532 51.2822 36.8257C51.2548 36.7156 51.2 36.6055 51.1452 36.5229C51.1178 36.4954 51.1178 36.4679 51.0904 36.4128C51.063 36.3578 51.0081 36.2752 50.9533 36.2202C50.9259 36.1927 50.8985 36.1376 50.8711 36.1101C50.8163 36.055 50.7615 35.9725 50.7066 35.9174C50.6792 35.8899 50.6518 35.8624 50.6244 35.8073C50.5422 35.7248 50.46 35.6697 50.3777 35.5872C50.3503 35.5872 50.3503 35.5596 50.3229 35.5321C50.2133 35.4495 50.1036 35.3945 49.994 35.3119C49.9666 35.2844 49.9118 35.2844 49.8844 35.2569C49.8021 35.2018 49.6925 35.1743 49.6103 35.1193C49.5555 35.0917 49.5006 35.0917 49.4732 35.0642C49.3636 35.0367 49.2814 35.0092 49.1717 34.9817C49.1169 34.9817 49.0621 34.9541 49.0073 34.9541C48.8702 34.9266 48.7332 34.8991 48.5961 34.8991C48.5687 34.8991 48.5413 34.8991 48.5139 34.8991C48.3495 34.8716 48.1576 34.8716 47.9657 34.8716C47.9109 34.8716 47.8561 34.8716 47.8287 34.8716C47.6917 34.8716 47.5272 34.8991 47.3902 34.8991C47.3353 34.8991 47.2531 34.9266 47.1983 34.9266C47.0612 34.9541 46.8968 34.9817 46.7323 35.0092C46.6775 35.0092 46.5953 35.0367 46.5405 35.0367C46.3212 35.0917 46.1019 35.1468 45.8553 35.2294C44.1011 35.8349 42.018 37.4862 39.9075 39.2202C38.6467 40.2661 37.3585 41.3119 36.1525 42.1376C35.385 42.6881 34.6176 43.1284 33.9049 43.4587V45.055H31.164V43.4862C27.4364 41.8349 22.6672 36.4404 19.1863 35.2569C18.9396 35.1743 18.7203 35.1193 18.5011 35.0642C18.4463 35.0367 18.364 35.0367 18.3092 35.0367C18.1448 35.0092 18.0077 34.9817 17.8433 34.9541C17.7884 34.9541 17.7062 34.9266 17.6514 34.9266C17.4869 34.8991 17.3499 34.8991 17.2129 34.8991C17.158 34.8991 17.1032 34.8991 17.0758 34.8991C16.8839 34.8991 16.6921 34.8991 16.5276 34.9266C16.5002 34.9266 16.4728 34.9266 16.4454 34.9266C16.3084 34.9541 16.1713 34.9541 16.0343 34.9817C15.9794 34.9817 15.9246 35.0092 15.8972 35.0092C15.7876 35.0367 15.6779 35.0642 15.5957 35.0917C15.5409 35.1193 15.4861 35.1193 15.4587 35.1468C15.349 35.1743 15.2668 35.2294 15.1846 35.2844C15.1572 35.3119 15.1024 35.3119 15.075 35.3394C14.9653 35.3945 14.8283 35.4771 14.746 35.5596L14.7186 35.5872C14.6364 35.6697 14.5542 35.7248 14.4445 35.8073C14.4171 35.8349 14.3897 35.8624 14.3623 35.8899C14.3075 35.945 14.2527 36.0275 14.1979 36.0826C14.1705 36.1101 14.143 36.1376 14.1156 36.1927C14.0608 36.2752 14.0334 36.3303 13.9786 36.4128C13.9512 36.4404 13.9512 36.4679 13.9238 36.4954C13.869 36.6055 13.8141 36.7156 13.7867 36.7982C13.7593 36.9083 13.7319 37.0183 13.7045 37.1009C13.7045 37.1284 13.7045 37.156 13.7045 37.1835C13.7045 37.2661 13.6771 37.3486 13.6771 37.4037C13.6771 37.4312 13.6771 37.4587 13.6771 37.5138C13.6771 37.5963 13.6771 37.6514 13.7045 37.7339C13.7045 37.7615 13.7045 37.789 13.7045 37.8165C13.7319 37.9266 13.7593 38.0092 13.7867 38.1193C14.006 38.6972 14.143 39.2202 14.2527 39.6881C14.2527 40.3486 14.2527 40.9817 14.2527 41.0092C14.2527 41.0367 14.2527 41.6972 14.746 42.1927C15.2394 42.6881 15.9794 42.9083 17.021 42.8257L17.6514 45.1376H17.8981C17.9529 45.1376 19.5152 45.0826 20.2004 44.2844C20.4745 43.9816 20.5842 43.6239 20.5293 43.211C20.4745 42.7156 20.3375 42.1101 20.173 41.5321C23.0236 43.9266 27.1897 47.5596 31.1366 48.5505V45.8257H33.8775V48.5505C37.8518 47.5596 42.0728 43.8716 44.9233 41.5046C45.1152 41.3394 45.3071 41.1743 45.4989 41.0367C45.4989 41.0367 45.5263 41.0367 45.5263 41.0092C45.636 40.9266 45.7456 40.844 45.8278 40.7615C45.8553 40.7339 45.8827 40.7064 45.9375 40.6789C45.9923 40.6514 46.0197 40.6239 46.0745 40.5963C46.1842 40.5413 46.2664 40.4587 46.376 40.4037C46.4308 40.3761 46.4857 40.3486 46.5405 40.3211C46.6227 40.2661 46.7323 40.211 46.8146 40.1835C46.8694 40.156 46.9242 40.1284 46.979 40.1009C47.0612 40.0734 47.1435 40.0183 47.2531 39.9908C47.3079 39.9633 47.3627 39.9633 47.4176 39.9358C47.4998 39.9083 47.582 39.8807 47.6642 39.8532C47.7191 39.8532 47.7739 39.8257 47.8013 39.8257C47.8835 39.7982 47.9657 39.7982 48.048 39.7706C48.1028 39.7706 48.1302 39.7706 48.185 39.7431C48.2672 39.7431 48.3495 39.7156 48.4591 39.7156C48.4865 39.7156 48.5413 39.7156 48.5687 39.7156H48.7058C48.8428 39.7156 48.8977 39.7156 48.9525 39.7431C49.0073 39.7431 49.0621 39.7706 49.1169 39.7706C49.1717 39.7706 49.2266 39.7982 49.2814 39.7982C49.3362 39.7982 49.391 39.8257 49.4458 39.8532C49.5006 39.8807 49.5555 39.8807 49.6103 39.9083C49.6651 39.9358 49.7199 39.9358 49.7473 39.9633C49.8021 39.9908 49.857 40.0183 49.8844 40.0459C49.9118 40.0734 49.9666 40.1009 50.0214 40.1284C50.0762 40.156 50.1036 40.1835 50.1585 40.211C50.1859 40.2385 50.2133 40.2661 50.2681 40.2936C50.2681 40.7064 50.2681 41.0092 50.2681 41.0367C50.2681 41.0367 50.2681 41.4495 49.9666 41.7523C49.6925 42.055 49.2266 42.1927 48.5961 42.1927C48.4043 42.1927 48.185 42.1651 47.9932 42.1376C47.7465 42.0826 46.4308 41.6972 45.4989 42.1101C45.6086 41.6422 45.773 41.1743 45.9101 40.7339C45.8004 40.8165 45.6908 40.8991 45.6086 40.9816C45.6086 40.9816 45.5812 40.9817 45.5812 41.0092C45.3893 41.1468 45.1974 41.3119 45.0056 41.4771C44.8411 42.0826 44.7041 42.6881 44.6493 43.211C44.6218 43.6239 44.7315 43.9816 44.9782 44.2844C45.6634 45.0826 47.2257 45.1376 47.2805 45.1376H47.5272L48.1576 42.8257C48.2947 42.8257 48.4591 42.8532 48.5961 42.8532C49.391 42.8532 50.0214 42.633 50.4326 42.2202C50.9533 41.6972 50.9259 41.0642 50.9259 41.0367C50.9259 41.0092 50.9533 40.2385 50.9259 39.5229C51.0081 39.1101 51.1452 38.6422 51.337 38.1468V38.1193C51.3645 38.0367 51.3919 37.9541 51.4193 37.8716C51.4193 37.844 51.4193 37.789 51.4467 37.7615C51.4467 37.7064 51.4741 37.6239 51.4741 37.5688C51.4741 37.5413 51.4741 37.4862 51.4741 37.4312C51.3645 37.4037 51.337 37.3211 51.337 37.2661ZM17.1306 42.1927C16.1987 42.3028 15.5409 42.1651 15.1572 41.8073C14.8557 41.4771 14.8557 41.0917 14.8557 41.0642C14.8557 41.0642 14.8557 40.7339 14.8557 40.3211C14.8831 40.2936 14.8831 40.2936 14.9105 40.2661C14.9379 40.2385 14.9653 40.211 15.0201 40.1835C15.075 40.156 15.1298 40.1009 15.1846 40.0734C15.212 40.0459 15.2668 40.0459 15.2942 40.0183C15.3765 39.9908 15.4587 39.9633 15.5409 39.9358C15.5683 39.9358 15.5957 39.9083 15.6505 39.9083C15.7602 39.8807 15.8972 39.8532 16.0069 39.8257C16.0343 39.8257 16.0617 39.8257 16.1165 39.8257C16.2261 39.8257 16.3084 39.7982 16.418 39.7982H16.4454C16.5276 39.7982 16.6099 39.7982 16.7195 39.7982C16.7469 39.7982 16.7469 39.7982 16.7743 39.7982C16.9114 39.7982 17.0484 39.8257 17.1854 39.8532C17.2129 39.8532 17.2403 39.8532 17.2677 39.8807C17.3773 39.9083 17.4869 39.9358 17.5966 39.9633C17.6514 39.9633 17.6788 39.9908 17.7336 40.0183C17.8433 40.0459 17.9255 40.0734 18.0351 40.1284C18.0899 40.156 18.1448 40.1835 18.1996 40.1835C18.3092 40.2385 18.3914 40.2661 18.4737 40.3211C18.5285 40.3486 18.5833 40.3761 18.6381 40.4037C18.7478 40.4587 18.8574 40.5413 18.9396 40.5963C18.9944 40.6239 19.0493 40.6514 19.0767 40.6789C19.1315 40.7064 19.1863 40.7615 19.2685 40.8165C19.4056 41.2294 19.5426 41.6972 19.6523 42.1376C18.6929 41.7798 17.3499 42.1376 17.1306 42.1927ZM19.6523 43.8991C19.2959 44.2844 18.5285 44.4495 18.0625 44.5046L17.5966 42.7431C17.8707 42.6881 18.227 42.633 18.5559 42.633C18.8848 42.633 19.2411 42.6881 19.4604 42.8532C19.6523 42.9908 19.7619 43.1835 19.8167 43.4587C19.8167 43.6238 19.7619 43.7615 19.6523 43.8991ZM46.9242 44.5046C46.4582 44.4495 45.6908 44.2844 45.3345 43.8991C45.2248 43.7615 45.17 43.6239 45.17 43.4312C45.1974 43.156 45.3345 42.9633 45.5263 42.8532C45.773 42.6881 46.1019 42.633 46.4308 42.633C46.7872 42.633 47.1435 42.6881 47.4176 42.7431L46.9242 44.5046ZM50.6244 37.9541C50.4874 38.2844 50.4051 38.5872 50.3229 38.8899C50.2681 39.1101 50.2133 39.3303 50.1585 39.5505C50.1036 39.5229 50.0488 39.4954 49.994 39.4679C49.5829 39.2752 49.0895 39.1651 48.5413 39.1651C48.4591 39.1651 48.3495 39.1651 48.2672 39.1651C47.9657 39.1927 47.6094 39.2477 47.2257 39.3578C46.8968 39.4679 46.5405 39.6055 46.1293 39.8257C45.8278 39.9908 45.5263 40.1835 45.2248 40.4312C45.17 40.4862 45.0878 40.5138 45.033 40.5688C44.7041 40.844 44.3478 41.1193 43.9914 41.4495C41.3876 43.6514 37.8792 46.5963 34.5079 47.7523V45.8807V45.0826V43.9266C36.2621 43.0459 38.2081 41.4771 40.072 39.9358C42.155 38.2294 44.3203 36.4679 46.0471 35.8899C46.7597 35.6422 47.4176 35.5321 48.0206 35.5321C49.0895 35.5321 49.9666 35.9174 50.4326 36.6055C50.7066 37.0459 50.7889 37.5413 50.6244 37.9541Z" fill="white"/>
</g>
<defs>
<clipPath id="clip0_122_1014">
<rect width="64" height="72" fill="white"/>
</clipPath>
</defs>
</svg>
